<?xml version="1.0" encoding="UTF-8" standalone="no"?>
<svg
   version="1.0"
   width="865.58057pt"
   height="840.97211pt"
   viewBox="0 0 865.58059 840.97208"
   preserveAspectRatio="xMidYMid"
   id="svg76"
   xmlns="http://www.w3.org/2000/svg"
   xmlns:svg="http://www.w3.org/2000/svg">
  <defs
     id="defs80" />
  <metadata
     id="metadata2">
Created by potrace 1.12, written by Peter Selinger 2001-2015
</metadata>
  <g
     transform="matrix(0.1,0,0,-0.1,-193.15789,993.87214)"
     fill="#000000"
     stroke="none"
     id="g74"
     style="fill:#ffffff;fill-opacity:1">
    <path
       d="m 6228,9930 c -1,-5 -100,-65 -218,-133 -118,-68 -291,-168 -385,-222 -154,-89 -522,-301 -599,-345 -35,-20 -82,-47 -311,-179 -88,-51 -173,-104 -188,-119 -15,-15 -42,-56 -60,-92 l -32,-65 -3,-651 -2,-652 -153,-83 c -83,-45 -170,-92 -192,-104 -22,-12 -76,-41 -120,-65 -100,-54 -149,-80 -303,-165 -68,-37 -126,-64 -129,-61 -12,11 19,175 51,269 l 31,95 -25,-20 c -14,-10 -66,-57 -116,-103 -88,-81 -91,-86 -105,-147 -8,-37 -14,-120 -14,-203 0,-159 17,-233 83,-360 104,-199 490,-466 898,-620 212,-80 592,-158 884,-180 70,-6 98,-3 160,14 73,20 130,27 130,15 0,-3 -27,-32 -60,-64 -94,-94 -125,-176 -87,-234 24,-35 110,-83 177,-97 30,-6 99,-11 153,-11 112,1 156,17 266,96 83,59 125,62 175,13 57,-57 117,-71 133,-31 4,11 -16,37 -63,86 -126,127 -160,129 -327,20 -42,-28 -101,-58 -130,-68 -115,-39 -267,-6 -267,57 0,20 136,177 240,277 36,35 89,75 118,89 75,37 167,30 272,-19 145,-69 378,-105 620,-95 317,14 586,86 905,242 269,132 489,297 612,460 94,124 170,318 193,495 27,213 -9,481 -100,731 l -31,86 -89,41 -90,41 v 384 c 0,423 -1,434 -64,528 -46,69 -46,69 -391,279 -66,40 -176,108 -245,150 -69,43 -195,120 -280,172 -85,52 -256,157 -380,233 -385,235 -403,247 -463,286 -61,41 -73,45 -79,29 z m 802,-800 c 311,-194 634,-396 717,-449 l 153,-96 v -283 c 0,-156 -4,-282 -8,-280 -4,2 -41,24 -82,51 -41,26 -365,229 -720,450 l -645,403 -3,283 c -2,226 0,282 10,278 7,-2 267,-163 578,-357 z m -165,-804 c 94,-58 254,-159 358,-224 103,-64 277,-173 387,-242 109,-69 219,-137 244,-152 l 46,-28 v -281 c 0,-264 -1,-281 -17,-274 -10,3 -328,200 -708,437 -379,237 -700,437 -712,444 -23,14 -23,15 -23,299 v 285 l 128,-79 c 70,-43 204,-126 297,-185 z m -1125,89 c 39,-20 60,-63 60,-120 0,-57 -21,-100 -60,-120 -42,-22 -547,-22 -589,-1 -43,23 -61,58 -61,121 0,67 10,89 53,115 30,18 52,20 300,20 220,0 273,-3 297,-15 z m 26,-609 c 31,-31 34,-39 34,-95 0,-69 -17,-104 -61,-127 -42,-21 -547,-21 -589,1 -47,24 -60,52 -60,128 0,62 3,71 29,98 l 29,29 h 292 292 z m 1186,-407 c 266,-167 535,-335 598,-374 63,-39 168,-104 233,-145 l 117,-73 v -233 -233 l -35,-27 c -19,-14 -41,-24 -49,-21 -8,3 -154,93 -323,199 -169,106 -474,296 -678,424 l -370,231 -3,283 c -2,245 0,282 12,277 8,-3 232,-142 498,-308 z m 1238,143 c 73,-193 93,-494 45,-687 -16,-67 -88,-235 -99,-235 -3,0 -6,231 -6,513 1,505 1,512 20,489 10,-13 29,-49 40,-80 z M 5766,7236 c 31,-31 34,-39 34,-93 0,-76 -25,-118 -77,-132 -22,-6 -143,-11 -286,-11 -266,0 -298,5 -331,51 -19,27 -22,129 -5,162 29,56 30,57 343,57 h 288 z M 4430,6650 c 0,-418 -3,-570 -11,-570 -7,0 -54,20 -105,44 l -94,45 v 216 c 0,144 -4,224 -11,238 -30,55 -96,79 -148,53 -53,-28 -61,-57 -61,-226 0,-95 -4,-150 -10,-148 -33,11 -207,145 -270,208 -75,75 -155,202 -148,236 2,8 30,30 63,48 33,18 101,54 150,81 50,26 162,87 250,135 88,48 196,107 240,131 44,23 94,51 110,61 17,10 33,18 38,18 4,0 7,-256 7,-570 z m 2164,101 c 78,-48 331,-207 563,-352 233,-145 423,-267 423,-271 0,-23 -344,-169 -480,-204 l -66,-17 -295,184 -294,185 -3,282 c -1,155 1,282 4,282 4,0 70,-40 148,-89 z m -855,-75 c 43,-23 61,-58 61,-120 0,-67 -13,-97 -50,-119 -24,-15 -65,-17 -315,-17 h -287 l -29,29 c -26,27 -29,36 -29,96 0,77 9,99 53,125 30,18 52,20 300,20 215,0 274,-3 296,-14 z m 0,-590 c 36,-19 61,-58 61,-95 0,-25 -10,-37 -57,-71 -107,-77 -187,-84 -498,-44 -166,21 -155,15 -155,85 0,71 10,93 53,119 30,18 52,20 300,20 215,0 274,-3 296,-14 z m 799,-171 c 81,-49 104,-73 60,-61 -13,3 -53,6 -90,6 h -68 v 56 c 0,31 4,54 8,52 5,-1 46,-25 90,-53 z"
       id="path4"
       style="fill:#ffffff;fill-opacity:1" />
    <path
       d="m 9984,6420 c -109,-16 -190,-54 -319,-150 -194,-144 -562,-382 -823,-532 -203,-115 -760,-391 -927,-458 -156,-63 -241,-105 -349,-173 -114,-71 -161,-87 -280,-93 -137,-7 -180,-18 -254,-66 -49,-32 -76,-43 -118,-46 -79,-7 -126,16 -240,113 -54,47 -117,94 -139,105 -35,18 -41,18 -55,5 -25,-26 21,-95 139,-207 58,-55 111,-109 118,-121 29,-51 0,-119 -55,-132 -63,-13 -152,39 -298,176 -88,83 -122,102 -131,73 -7,-21 59,-102 142,-172 90,-77 164,-174 167,-221 4,-72 -16,-113 -62,-129 -67,-24 -155,23 -295,158 -148,143 -185,166 -185,118 0,-30 67,-115 145,-184 42,-37 75,-77 91,-110 24,-48 24,-54 11,-87 -39,-93 -135,-86 -248,20 -59,55 -74,81 -83,145 -4,26 -19,63 -36,86 -29,40 -99,82 -138,82 -30,0 -92,31 -92,47 0,29 -78,91 -134,107 -52,16 -56,19 -67,59 -15,55 -41,90 -87,118 -46,28 -48,32 -56,83 -18,107 -93,170 -203,170 -60,0 -65,-3 -165,-70 -56,-38 -131,-93 -165,-122 l -63,-53 -128,26 c -307,63 -680,173 -907,270 -293,124 -651,356 -875,564 -52,49 -137,109 -195,138 -62,31 -112,36 -198,18 -128,-26 -131,-29 -51,-53 156,-48 292,-129 477,-287 l 117,-100 -3,-945 -2,-945 -468,-5 -469,-5 -24,-28 c -36,-42 -34,-109 5,-148 l 29,-29 h 4242 4242 l 28,29 c 36,35 46,73 30,110 -28,69 -6,65 -494,71 l -441,5 -5,967 -5,967 -34,35 c -22,23 -93,64 -198,116 -90,44 -168,80 -173,80 -35,0 4,33 168,144 178,121 254,173 422,295 96,69 216,127 305,147 134,30 136,32 20,32 -60,0 -133,-4 -161,-8 z m -855,-801 c 63,-30 155,-74 205,-99 l 91,-45 3,-905 c 1,-498 0,-909 -2,-915 -2,-7 -226,-9 -650,-7 l -646,2 v 803 803 l 130,61 130,61 2,-730 3,-730 39,-35 c 34,-31 43,-35 78,-30 49,7 85,38 98,86 6,22 10,323 10,793 v 757 l 63,34 c 34,19 116,64 182,100 79,43 124,63 135,58 8,-4 66,-32 129,-62 z M 3264,5332 c 34,-21 100,-60 149,-86 l 87,-48 v -609 c 0,-661 -1,-646 54,-683 43,-28 90,-21 131,19 l 35,36 v 570 c 0,483 2,570 14,567 8,-2 71,-21 140,-43 l 126,-40 v -518 c 0,-560 -1,-555 54,-591 51,-33 122,-12 152,45 12,23 14,109 14,514 0,413 2,485 14,485 8,0 55,-9 105,-21 l 91,-21 -2,-631 -3,-632 -617,-3 -618,-2 v 865 c 0,476 3,865 6,865 4,0 34,-17 68,-38 z m 1916,-227 c 51,-26 72,-87 48,-139 -10,-23 -181,-174 -247,-218 -86,-59 -201,35 -162,131 12,26 232,218 269,233 29,11 62,9 92,-7 z m 2676,-15 44,-31 v -279 c 0,-154 -2,-280 -5,-280 -3,0 -65,37 -138,83 -73,45 -225,141 -339,212 -114,71 -205,132 -202,134 2,2 62,7 132,11 145,7 173,17 346,125 49,30 95,55 103,55 8,0 34,-14 59,-30 z M 5324,4880 c 31,-11 66,-65 66,-100 0,-47 -24,-72 -223,-233 -47,-38 -65,-47 -97,-47 -75,0 -129,79 -101,149 11,26 53,64 214,194 60,49 90,57 141,37 z m 1508,-34 c 35,-8 59,-23 603,-363 l 460,-289 3,-283 c 2,-225 0,-282 -10,-278 -7,2 -76,44 -154,93 -78,49 -358,224 -622,389 l -482,300 v 41 c 0,48 -36,124 -86,182 l -36,42 79,-41 c 93,-48 151,-59 188,-35 67,44 72,141 11,226 -36,50 -36,51 -9,37 16,-8 40,-17 55,-21 z M 5559,4664 c 37,-31 50,-84 30,-125 -16,-34 -243,-226 -278,-235 -42,-12 -93,8 -118,45 -27,41 -29,76 -5,113 16,25 184,172 242,211 37,26 93,22 129,-9 z m 250,-160 c 37,-31 50,-84 30,-125 -20,-42 -246,-227 -287,-235 -43,-8 -90,12 -113,50 -22,36 -24,64 -7,100 10,23 181,174 247,218 39,26 94,23 130,-8 z m -579,-284 c 28,-7 64,-10 81,-6 23,4 29,2 29,-11 0,-28 49,-102 78,-117 25,-14 16,-15 -110,-16 -149,0 -176,7 -201,50 -19,31 -23,130 -7,160 9,16 12,15 44,-15 22,-21 54,-37 86,-45 z m 556,-96 c -27,-39 -60,-55 -109,-52 l -45,3 81,66 82,66 3,-29 c 2,-16 -4,-40 -12,-54 z m 921,-80 c 136,-86 330,-208 431,-272 100,-63 182,-119 182,-123 0,-5 -191,-8 -437,-7 l -438,3 -3,278 c -1,168 1,277 7,277 5,0 121,-70 258,-156 z"
       id="path6"
       style="fill:#ffffff;fill-opacity:1" />
    <path
       d="m 8955,5238 c -67,-39 -65,-16 -65,-702 v -625 l 30,-34 c 35,-41 78,-52 124,-33 70,29 66,-9 66,696 0,698 3,662 -60,695 -34,18 -67,19 -95,3 z"
       id="path8"
       style="fill:#ffffff;fill-opacity:1" />
    <path
       d="m 3894,2986 c -24,-24 -34,-43 -34,-65 0,-39 24,-87 49,-101 13,-7 795,-10 2426,-10 h 2407 l 28,29 c 16,16 32,40 36,55 9,37 -13,85 -50,107 -30,18 -101,19 -2429,19 H 3928 Z"
       id="path10"
       style="fill:#ffffff;fill-opacity:1" />
    <path
       d="m 2149,2643 c -15,-2 -51,-19 -80,-36 -162,-97 -186,-385 -44,-516 119,-110 347,-84 413,46 42,82 41,83 -30,83 -64,0 -64,0 -81,-36 -21,-43 -74,-68 -128,-61 -88,12 -133,84 -133,212 0,98 26,164 76,195 66,40 161,16 189,-49 13,-30 16,-31 76,-31 71,0 73,3 44,65 -45,99 -163,149 -302,128 z"
       id="path12"
       style="fill:#ffffff;fill-opacity:1" />
    <path
       d="m 10233,2640 c -91,-21 -148,-96 -140,-183 8,-87 60,-130 205,-168 95,-25 132,-53 132,-98 0,-43 -40,-71 -102,-71 -61,0 -102,21 -120,60 -12,29 -15,30 -75,30 -71,0 -73,-3 -44,-65 37,-83 110,-120 236,-120 65,0 89,5 130,25 104,52 137,178 68,260 -32,39 -85,66 -185,95 -88,26 -118,46 -118,82 0,39 34,63 89,63 51,0 101,-28 101,-56 0,-11 15,-14 65,-14 69,0 71,2 54,47 -35,93 -167,144 -296,113 z"
       id="path14"
       style="fill:#ffffff;fill-opacity:1" />
    <path
       d="m 2973,2335 -101,-305 h 64 63 l 22,70 21,70 h 113 113 l 23,-67 24,-68 68,-3 c 38,-2 67,1 65,6 -1,5 -50,142 -107,305 l -104,297 h -81 -81 z m 226,68 39,-123 h -83 -83 l 35,118 c 41,141 44,150 49,137 2,-5 21,-65 43,-132 z"
       id="path16"
       style="fill:#ffffff;fill-opacity:1" />
    <path
       d="m 3880,2335 v -307 l 173,4 c 162,3 175,4 216,28 63,36 84,68 89,140 4,60 4,60 -39,103 l -44,44 23,19 c 13,10 30,39 38,63 26,75 -2,148 -69,183 -38,21 -58,23 -214,26 l -173,4 z m 318,185 c 29,-27 29,-76 0,-107 -19,-20 -31,-23 -105,-23 h -83 v 75 75 h 83 c 70,0 87,-3 105,-20 z m 6,-251 c 20,-16 26,-29 26,-59 0,-61 -32,-80 -136,-80 h -84 v 80 80 h 84 c 69,0 88,-4 110,-21 z"
       id="path18"
       style="fill:#ffffff;fill-opacity:1" />
    <path
       d="m 4863,2335 -101,-305 h 64 63 l 22,70 21,70 h 113 113 l 23,-67 24,-68 68,-3 c 38,-2 67,1 65,6 -1,5 -50,142 -107,305 l -104,297 h -81 -81 z m 226,68 39,-123 h -83 -83 l 35,118 c 41,141 44,150 49,137 2,-5 21,-65 43,-132 z"
       id="path20"
       style="fill:#ffffff;fill-opacity:1" />
    <path
       d="m 5770,2335 v -305 h 61 61 l -4,235 c -1,129 -2,235 -1,235 1,0 42,-78 91,-172 50,-95 106,-201 124,-235 l 33,-63 h 78 77 v 305 305 h -61 -61 l 4,-224 3,-224 -49,92 c -27,50 -82,150 -121,221 l -72,130 -81,3 -82,3 z"
       id="path22"
       style="fill:#ffffff;fill-opacity:1" />
    <path
       d="m 6780,2335 v -305 h 65 65 v 305 305 h -65 -65 z"
       id="path24"
       style="fill:#ffffff;fill-opacity:1" />
    <path
       d="m 7400,2335 v -305 h 210 210 v 33 c 0,17 3,42 6,55 l 6,22 h -151 -151 v 250 250 h -65 -65 z"
       id="path26"
       style="fill:#ffffff;fill-opacity:1" />
    <path
       d="m 8260,2335 v -305 h 210 210 v 33 c 0,17 3,42 6,55 l 6,22 h -151 -151 v 250 250 h -65 -65 z"
       id="path28"
       style="fill:#ffffff;fill-opacity:1" />
    <path
       d="m 9193,2335 -101,-305 h 64 63 l 22,70 21,70 h 113 113 l 23,-67 24,-68 68,-3 c 38,-2 67,1 65,6 -1,5 -50,142 -107,305 l -104,297 h -81 -81 z m 226,68 39,-123 h -83 -83 l 35,118 c 41,141 44,150 49,137 2,-5 21,-65 43,-132 z"
       id="path30"
       style="fill:#ffffff;fill-opacity:1" />
    <path
       d="m 3390,1696 c 0,-140 2,-166 15,-166 12,0 15,25 17,145 l 3,144 86,-142 c 62,-103 92,-143 108,-145 21,-3 21,-1 21,162 0,140 -2,166 -15,166 -12,0 -15,-25 -17,-139 l -3,-140 -85,137 c -63,101 -91,138 -108,140 -22,3 -22,3 -22,-162 z"
       id="path32"
       style="fill:#ffffff;fill-opacity:1" />
    <path
       d="m 3740,1695 v -166 l 102,3 c 70,2 103,7 106,16 3,9 -19,12 -87,12 h -91 v 60 60 h 80 c 64,0 80,3 80,15 0,12 -16,15 -80,15 h -80 v 60 60 h 85 c 69,0 85,3 85,15 0,12 -18,15 -100,15 h -100 z"
       id="path34"
       style="fill:#ffffff;fill-opacity:1" />
    <path
       d="m 4081,1842 c -59,-30 -76,-63 -76,-150 0,-64 4,-82 23,-109 40,-57 146,-69 193,-22 19,19 19,19 19,-6 0,-16 6,-25 15,-25 12,0 15,16 15,85 v 85 h -65 c -51,0 -65,-3 -65,-15 0,-11 12,-15 50,-15 44,0 50,-3 50,-21 0,-53 -39,-88 -97,-89 -63,0 -104,39 -110,107 -10,100 33,163 112,163 32,0 48,-6 69,-26 14,-15 26,-31 26,-35 0,-5 7,-9 15,-9 19,0 19,4 -1,41 -28,55 -110,74 -173,41 z"
       id="path36"
       style="fill:#ffffff;fill-opacity:1" />
    <path
       d="m 4411,1843 c -54,-28 -75,-64 -79,-136 -4,-71 15,-117 61,-151 39,-29 115,-29 154,0 86,63 85,223 -1,279 -39,26 -96,29 -135,8 z m 117,-29 c 33,-23 52,-67 52,-119 0,-82 -43,-135 -110,-135 -66,0 -110,56 -110,140 0,77 45,130 110,130 20,0 46,-7 58,-16 z"
       id="path38"
       style="fill:#ffffff;fill-opacity:1" />
    <path
       d="m 4739,1837 c -45,-30 -69,-80 -69,-145 0,-58 15,-95 53,-130 53,-50 160,-34 192,27 21,42 -1,42 -37,1 -21,-24 -34,-30 -65,-30 -70,0 -113,52 -113,135 0,83 43,135 113,135 31,0 44,-6 65,-30 36,-41 58,-41 37,1 -30,57 -117,76 -176,36 z"
       id="path40"
       style="fill:#ffffff;fill-opacity:1" />
    <path
       d="m 5000,1695 c 0,-140 2,-165 15,-165 13,0 15,25 15,165 0,140 -2,165 -15,165 -13,0 -15,-25 -15,-165 z"
       id="path42"
       style="fill:#ffffff;fill-opacity:1" />
    <path
       d="m 5191,1843 c -54,-28 -75,-64 -79,-136 -4,-71 15,-117 61,-151 39,-29 115,-29 154,0 86,63 85,223 -1,279 -39,26 -96,29 -135,8 z m 117,-29 c 33,-23 52,-67 52,-119 0,-82 -43,-135 -110,-135 -66,0 -110,56 -110,140 0,77 45,130 110,130 20,0 46,-7 58,-16 z"
       id="path44"
       style="fill:#ffffff;fill-opacity:1" />
    <path
       d="m 5504,1846 c -34,-15 -44,-33 -44,-75 0,-34 23,-56 80,-76 25,-8 55,-20 67,-26 29,-16 38,-55 18,-85 -12,-19 -24,-24 -58,-24 -45,0 -87,22 -87,46 0,8 -9,14 -20,14 -20,0 -20,-1 -5,-30 44,-85 194,-74 211,15 9,51 -12,75 -97,110 -66,27 -74,34 -77,60 -5,37 19,55 69,55 28,0 43,-6 57,-25 20,-25 42,-33 42,-16 0,6 -10,22 -23,36 -27,32 -88,42 -133,21 z"
       id="path46"
       style="fill:#ffffff;fill-opacity:1" />
    <path
       d="m 5850,1695 c 0,-140 2,-165 15,-165 13,0 15,25 15,165 0,140 -2,165 -15,165 -13,0 -15,-25 -15,-165 z"
       id="path48"
       style="fill:#ffffff;fill-opacity:1" />
    <path
       d="m 5970,1696 c 0,-140 2,-166 15,-166 12,0 15,25 17,145 l 3,144 86,-142 c 62,-103 92,-143 108,-145 21,-3 21,-1 21,162 0,140 -2,166 -15,166 -12,0 -15,-25 -17,-139 l -3,-140 -85,137 c -63,101 -91,138 -108,140 -22,3 -22,3 -22,-162 z"
       id="path50"
       style="fill:#ffffff;fill-opacity:1" />
    <path
       d="m 6320,1695 c 0,-140 2,-165 15,-165 13,0 15,23 15,148 l 1,147 52,-145 c 33,-93 58,-146 67,-148 12,-2 30,36 70,143 l 55,145 3,-145 c 2,-120 5,-145 17,-145 13,0 15,26 15,165 v 165 h -23 c -20,0 -29,-17 -78,-146 l -56,-145 -53,145 c -48,132 -55,146 -76,146 h -24 z"
       id="path52"
       style="fill:#ffffff;fill-opacity:1" />
    <path
       d="m 6781,1843 c -54,-28 -75,-64 -79,-136 -4,-71 15,-117 61,-151 39,-29 115,-29 154,0 86,63 85,223 -1,279 -39,26 -96,29 -135,8 z m 117,-29 c 33,-23 52,-67 52,-119 0,-82 -43,-135 -110,-135 -66,0 -110,56 -110,140 0,77 45,130 110,130 20,0 46,-7 58,-16 z"
       id="path54"
       style="fill:#ffffff;fill-opacity:1" />
    <path
       d="m 7050,1695 v -165 h 69 c 86,0 128,14 146,51 22,42 18,67 -14,99 -28,28 -28,30 -10,46 19,17 25,58 13,89 -11,28 -60,45 -134,45 h -70 z m 164,119 c 23,-22 20,-71 -3,-84 -11,-5 -45,-10 -75,-10 h -56 v 55 55 h 59 c 41,0 65,-5 75,-16 z m 11,-149 c 28,-27 30,-37 14,-68 -18,-33 -28,-37 -96,-37 h -63 v 65 65 h 60 c 51,0 65,-4 85,-25 z"
       id="path56"
       style="fill:#ffffff;fill-opacity:1" />
    <path
       d="m 7350,1695 c 0,-140 2,-165 15,-165 13,0 15,25 15,165 0,140 -2,165 -15,165 -13,0 -15,-25 -15,-165 z"
       id="path58"
       style="fill:#ffffff;fill-opacity:1" />
    <path
       d="m 7470,1695 v -165 h 100 c 82,0 100,3 100,15 0,12 -16,15 -85,15 h -85 v 150 c 0,127 -2,150 -15,150 -13,0 -15,-25 -15,-165 z"
       id="path60"
       style="fill:#ffffff;fill-opacity:1" />
    <path
       d="m 7720,1695 c 0,-140 2,-165 15,-165 13,0 15,25 15,165 0,140 -2,165 -15,165 -13,0 -15,-25 -15,-165 z"
       id="path62"
       style="fill:#ffffff;fill-opacity:1" />
    <path
       d="m 7919,1833 c -6,-16 -25,-71 -44,-123 -18,-52 -40,-114 -49,-138 -14,-40 -14,-43 0,-40 9,2 24,23 34,48 l 18,45 69,3 69,3 18,-51 c 10,-27 24,-50 32,-50 8,0 14,3 14,8 0,4 -26,78 -57,164 -45,123 -62,158 -76,158 -10,0 -22,-12 -28,-27 z m 56,-83 c 14,-40 25,-77 25,-82 0,-4 -25,-8 -56,-8 -41,0 -55,3 -51,13 2,6 15,45 28,84 12,40 24,71 26,69 2,-1 14,-36 28,-76 z"
       id="path64"
       style="fill:#ffffff;fill-opacity:1" />
    <path
       d="m 8150,1696 c 0,-141 2,-166 15,-166 12,0 15,14 15,70 v 70 h 53 c 71,0 81,-9 87,-76 7,-78 30,-86 30,-11 0,39 -6,62 -19,78 -19,23 -19,24 5,52 31,36 31,78 0,114 -22,25 -31,28 -105,31 l -81,4 z m 155,120 c 13,-9 19,-26 19,-51 0,-49 -23,-65 -91,-65 h -53 v 65 65 h 53 c 29,0 62,-6 72,-14 z"
       id="path66"
       style="fill:#ffffff;fill-opacity:1" />
    <path
       d="m 8430,1695 c 0,-140 2,-165 15,-165 13,0 15,25 15,165 0,140 -2,165 -15,165 -13,0 -15,-25 -15,-165 z"
       id="path68"
       style="fill:#ffffff;fill-opacity:1" />
    <path
       d="m 8621,1843 c -54,-28 -75,-64 -79,-136 -4,-71 15,-117 61,-151 39,-29 115,-29 154,0 86,63 85,223 -1,279 -39,26 -96,29 -135,8 z m 117,-29 c 33,-23 52,-67 52,-119 0,-82 -43,-135 -110,-135 -66,0 -110,56 -110,140 0,77 45,130 110,130 20,0 46,-7 58,-16 z"
       id="path70"
       style="fill:#ffffff;fill-opacity:1" />
    <path
       d="m 8934,1846 c -34,-15 -44,-33 -44,-75 0,-34 23,-56 80,-76 25,-8 55,-20 67,-26 29,-16 38,-55 18,-85 -12,-19 -24,-24 -58,-24 -45,0 -87,22 -87,46 0,8 -9,14 -20,14 -20,0 -20,-1 -5,-30 44,-85 194,-74 211,15 9,51 -12,75 -97,110 -66,27 -74,34 -77,60 -5,37 19,55 69,55 28,0 43,-6 57,-25 20,-25 42,-33 42,-16 0,6 -10,22 -23,36 -27,32 -88,42 -133,21 z"
       id="path72"
       style="fill:#ffffff;fill-opacity:1" />
  </g>
</svg>
